<svg width="64" height="64" viewBox="0 0 64 64" fill="none" xmlns="http://www.w3.org/2000/svg">
<path d="M15.36 26.6667H53.3333V48.0001H10.6667V17.2534M58.6667 10.6667H48L53.3333 21.3334H45.3333L40 10.6667H34.6667L40 21.3334H32L26.6667 10.6667H21.3333L26.6667 21.3334H18.6667L13.3333 10.6667H10.6667C9.25218 10.6667 7.89563 11.2287 6.89543 12.2288C5.89524 13.229 5.33334 14.5856 5.33334 16.0001V48.0001C5.33334 49.4146 5.89524 50.7711 6.89543 51.7713C7.89563 52.7715 9.25218 53.3334 10.6667 53.3334H53.3333C54.7478 53.3334 56.1044 52.7715 57.1046 51.7713C58.1048 50.7711 58.6667 49.4146 58.6667 48.0001V10.6667Z" fill="#476FFF"/>
</svg>
