<svg width="64" height="64" viewBox="0 0 64 64" fill="none" xmlns="http://www.w3.org/2000/svg">
<path d="M45.3333 48.6666V57.3333H18.6667V48.6666C18.6667 44.9866 24.64 42 32 42C39.36 42 45.3333 44.9866 45.3333 48.6666ZM32 14.6667C36.5971 14.6667 41.0059 16.4928 44.2565 19.7435C47.5071 22.9941 49.3333 27.4029 49.3333 32C49.3333 35.3333 48.4 38.4533 46.7733 41.0933L42.6667 37.44C43.52 35.8133 44 33.9467 44 32C44 25.3333 38.6667 20 32 20C25.3333 20 20 25.3333 20 32C20 33.9467 20.48 35.8133 21.3333 37.44L17.2267 41.0933C15.6 38.4533 14.6667 35.3333 14.6667 32C14.6667 27.4029 16.4928 22.9941 19.7435 19.7435C22.9941 16.4928 27.4029 14.6667 32 14.6667ZM32 4C39.4261 4 46.548 6.94999 51.799 12.201C57.05 17.452 60 24.5739 60 32C60 38.08 58.0533 43.7066 54.7733 48.2933L50.7733 44.6933C53.2267 41.0667 54.6667 36.6933 54.6667 32C54.6667 25.9884 52.2786 20.2231 48.0277 15.9722C43.7769 11.7214 38.0116 9.33333 32 9.33333C25.9884 9.33333 20.2231 11.7214 15.9722 15.9722C11.7214 20.2231 9.33333 25.9884 9.33333 32C9.33333 36.6933 10.7733 41.0667 13.2267 44.6933L9.22666 48.2933C5.82259 43.5429 3.99454 37.8442 4 32C4 24.5739 6.94999 17.452 12.201 12.201C17.452 6.94999 24.5739 4 32 4ZM32 25.3333C33.7681 25.3333 35.4638 26.0357 36.714 27.2859C37.9643 28.5362 38.6667 30.2319 38.6667 32C38.6667 33.7681 37.9643 35.4638 36.714 36.714C35.4638 37.9643 33.7681 38.6667 32 38.6667C30.2319 38.6667 28.5362 37.9643 27.2859 36.714C26.0357 35.4638 25.3333 33.7681 25.3333 32C25.3333 30.2319 26.0357 28.5362 27.2859 27.2859C28.5362 26.0357 30.2319 25.3333 32 25.3333Z" fill="#476FFF"/>
</svg>
