<svg width="64" height="64" viewBox="0 0 64 64" fill="none" xmlns="http://www.w3.org/2000/svg">
<path d="M58 52C58 52.5304 57.7893 53.0391 57.4142 53.4142C57.0391 53.7893 56.5304 54 56 54H8C7.46957 54 6.96086 53.7893 6.58579 53.4142C6.21071 53.0391 6 52.5304 6 52C6 51.4696 6.21071 50.9609 6.58579 50.5858C6.96086 50.2107 7.46957 50 8 50H56C56.5304 50 57.0391 50.2107 57.4142 50.5858C57.7893 50.9609 58 51.4696 58 52ZM58 14V42C58 43.0609 57.5786 44.0783 56.8284 44.8284C56.0783 45.5786 55.0609 46 54 46H10C8.93913 46 7.92172 45.5786 7.17157 44.8284C6.42143 44.0783 6 43.0609 6 42V14C6 12.9391 6.42143 11.9217 7.17157 11.1716C7.92172 10.4214 8.93913 10 10 10H54C55.0609 10 56.0783 10.4214 56.8284 11.1716C57.5786 11.9217 58 12.9391 58 14ZM41 28C40.9999 27.6634 40.9148 27.3323 40.7527 27.0373C40.5906 26.7423 40.3566 26.493 40.0725 26.3125L29.0725 19.3125C28.7701 19.1204 28.4218 19.013 28.0637 19.0016C27.7057 18.9902 27.3512 19.0752 27.0372 19.2476C26.7232 19.4201 26.4613 19.6737 26.2789 19.9819C26.0964 20.2902 26.0001 20.6418 26 21V35C26.0001 35.3582 26.0964 35.7098 26.2789 36.0181C26.4613 36.3263 26.7232 36.5799 27.0372 36.7524C27.3512 36.9248 27.7057 37.0098 28.0637 36.9984C28.4218 36.987 28.7701 36.8796 29.0725 36.6875L40.0725 29.6875C40.3566 29.507 40.5906 29.2577 40.7527 28.9627C40.9148 28.6677 40.9999 28.3366 41 28Z" fill="#476FFF"/>
</svg>
