<svg width="64" height="64" viewBox="0 0 64 64" fill="none" xmlns="http://www.w3.org/2000/svg">
<path d="M17.4496 13.3345C17.236 13.1165 16.9815 12.9428 16.7007 12.8232C16.4199 12.7036 16.1182 12.6405 15.813 12.6376C15.5078 12.6346 15.2051 12.6918 14.922 12.8059C14.6389 12.92 14.3811 13.0887 14.1632 13.3025C11.6991 15.7524 9.74437 18.6659 8.41195 21.875C7.07953 25.0842 6.39573 28.5254 6.40001 32.0001C6.39602 35.6082 7.13363 39.1786 8.56706 42.4897C10.0005 45.8008 12.0992 48.7819 14.7328 51.2481C15.1761 51.6579 15.7616 51.8787 16.365 51.8638C16.9685 51.8488 17.5424 51.5993 17.9648 51.1681C18.976 50.1569 18.8512 48.5473 17.8784 47.6161C15.7648 45.6018 14.0829 43.1788 12.9348 40.4943C11.7867 37.8097 11.1965 34.9198 11.2 32.0001C11.2 26.0929 13.5712 20.7361 17.4176 16.8385C18.3456 15.8945 18.4416 14.3265 17.4496 13.3345ZM23.0848 18.9761C22.6634 18.5425 22.0872 18.2936 21.4826 18.284C20.878 18.2744 20.2942 18.5049 19.8592 18.9249C18.1278 20.6336 16.7536 22.6695 15.8164 24.9142C14.8791 27.1589 14.3977 29.5676 14.4 32.0001C14.3963 34.5721 14.9336 37.1161 15.9773 39.4669C17.0209 41.8177 18.5474 43.9226 20.4576 45.6449C20.8968 46.0329 21.4685 46.2371 22.0541 46.215C22.6397 46.193 23.1944 45.9465 23.6032 45.5265C24.6528 44.4769 24.4576 42.8257 23.472 41.8977C22.121 40.6277 21.0448 39.0941 20.31 37.3917C19.5753 35.6893 19.1975 33.8543 19.2 32.0001C19.2 28.3201 20.6624 24.9793 23.04 22.5281C23.9552 21.5873 24.1056 19.9937 23.0848 18.9761ZM40.9152 18.9761C41.3367 18.5425 41.9128 18.2936 42.5174 18.284C43.1221 18.2744 43.7058 18.5049 44.1408 18.9249C45.8722 20.6336 47.2464 22.6695 48.1837 24.9142C49.1209 27.1589 49.6023 29.5676 49.6 32.0001C49.6038 34.5721 49.0664 37.1161 48.0228 39.4669C46.9791 41.8177 45.4526 43.9226 43.5424 45.6449C43.1032 46.0329 42.5316 46.2371 41.9459 46.215C41.3603 46.193 40.8056 45.9465 40.3968 45.5265C39.3472 44.4769 39.5424 42.8257 40.528 41.8977C41.879 40.6277 42.9552 39.0941 43.69 37.3917C44.4248 35.6893 44.8026 33.8543 44.8 32.0001C44.8 28.3201 43.3376 24.9793 40.96 22.5281C40.0448 21.5873 39.8944 19.9937 40.9152 18.9761ZM46.5504 13.3377C46.764 13.1197 47.0185 12.946 47.2994 12.8264C47.5802 12.7068 47.8818 12.6437 48.187 12.6408C48.4922 12.6378 48.795 12.695 49.0781 12.8091C49.3611 12.9232 49.619 13.0919 49.8368 13.3057C52.3006 15.7552 54.255 18.6682 55.5875 21.8767C56.9199 25.0853 57.6039 28.5259 57.6 32.0001C57.604 35.6082 56.8664 39.1786 55.433 42.4897C53.9995 45.8008 51.9009 48.7819 49.2672 51.2481C48.8239 51.6579 48.2384 51.8787 47.635 51.8638C47.0315 51.8488 46.4577 51.5993 46.0352 51.1681C45.024 50.1569 45.1488 48.5473 46.1248 47.6161C48.2378 45.6015 49.9192 43.1784 51.0667 40.4939C52.2142 37.8094 52.8039 34.9196 52.8 32.0001C52.8 26.0929 50.4288 20.7361 46.5824 16.8385C45.6544 15.8945 45.5584 14.3265 46.5504 13.3345V13.3377ZM32 27.2001C30.727 27.2001 29.5061 27.7058 28.6059 28.606C27.7057 29.5062 27.2 30.7271 27.2 32.0001C27.2 33.2731 27.7057 34.494 28.6059 35.3942C29.5061 36.2944 30.727 36.8001 32 36.8001C33.2731 36.8001 34.494 36.2944 35.3941 35.3942C36.2943 34.494 36.8 33.2731 36.8 32.0001C36.8 30.7271 36.2943 29.5062 35.3941 28.606C34.494 27.7058 33.2731 27.2001 32 27.2001Z" fill="#476FFF"/>
</svg>
